# xmcd CD database file
#
# Track frame offsets:
#	150
#	6940
#	26529
#	44200
#	63580
#	70538
#	79283
#	87508
#	102167
#	109090
#	127557
#	140812
#	156584
#	171101
#	191647
#	206482
#	214341
#	221142
#	235823
#	249025
#	257344
#	273478
#	297042
#	311119
#
# Disc length: 4307 seconds
#
# Revision: 1
# Processed by: cddbd v1.5PL3 Copyright (c) Steve Scherf et al.
# Submitted via: CDex 1.40Beta9
#
DISCID=6510d118
DTITLE=50 Cent - 24 Shots
DYEAR=2003
DGENRE=Rap
TTITLE0=Intro [Power of the dollar]
TTITLE1=How to Rob
TTITLE2=The good die young
TTITLE3=Bad news feat.G-Unit
TTITLE4=Gun runner
TTITLE5=Who shot ya
TTITLE6=Beef with me
TTITLE7=Follow me gangsta feat.G-Unit
TTITLE8=Corner bodega
TTITLE9=Look what you made me do feat.Ron G
TTITLE10=C.R.E.A.M. freestyle feat.G-Unit
TTITLE11=You ain't no gangsta
TTITLE12=Fat bitch feat.G-Unit
TTITLE13=Ecstasy/I smell p*ssy  feat.G-Unit
TTITLE14=The hit
TTITLE15=Crazy
TTITLE16=No introduction
TTITLE17=The thuth/You not ready feat.G-Unit
TTITLE18=Bump that freestyle feat.G-Unit
TTITLE19=Burn freestyle feat.G-Unit
TTITLE20=I'm a hustler
TTITLE21=The realest niggaz feat.Biggie and Eminem
TTITLE22=In da club
TTITLE23=Ridin' through the hood feat.Brooklyn
EXTD=YEAR: 2003 ID3G: 15
EXTT0=
EXTT1=
EXTT2=
EXTT3=
EXTT4=
EXTT5=
EXTT6=
EXTT7=
EXTT8=
EXTT9=
EXTT10=
EXTT11=
EXTT12=
EXTT13=
EXTT14=
EXTT15=
EXTT16=
EXTT17=
EXTT18=
EXTT19=
EXTT20=
EXTT21=
EXTT22=
EXTT23=
PLAYORDER=
